<?xml version="1.0" standalone="no"?>
<!DOCTYPE svg PUBLIC "-//W3C//DTD SVG 20010904//EN"
 "http://www.w3.org/TR/2001/REC-SVG-20010904/DTD/svg10.dtd">
<svg version="1.0" xmlns="http://www.w3.org/2000/svg"
 width="894.000000pt" height="894.000000pt" viewBox="0 0 894.000000 894.000000"
 preserveAspectRatio="xMidYMid meet">
<metadata>
Created by potrace 1.14, written by Peter Selinger 2001-2017
</metadata>
<g transform="translate(0.000000,894.000000) scale(0.100000,-0.100000)"
fill="#000000" stroke="none">
<path d="M6986 8875 c-9 -13 -16 -26 -16 -28 0 -3 -21 -42 -46 -88 -26 -46
-60 -109 -77 -139 -16 -30 -43 -80 -60 -110 -16 -30 -41 -75 -54 -100 -13 -25
-38 -70 -54 -100 -17 -30 -50 -89 -73 -130 -67 -123 -62 -116 -81 -100 -16 13
-19 12 -33 -8 -8 -12 -20 -22 -27 -22 -6 0 -20 -9 -30 -20 -10 -11 -24 -20
-31 -20 -7 0 -19 -6 -26 -13 -7 -7 -15 -14 -18 -15 -26 -5 -60 -24 -60 -32 0
-5 -3 -9 -7 -8 -10 3 -141 -69 -165 -90 -10 -8 -18 -11 -18 -6 0 5 -4 4 -8 -1
-4 -6 -29 -24 -57 -40 -27 -15 -53 -32 -56 -37 -3 -6 -9 -9 -13 -8 -4 1 -49
-26 -101 -59 -52 -34 -96 -60 -98 -59 -1 1 -15 -10 -31 -25 -16 -15 -35 -27
-42 -27 -8 0 -14 -5 -14 -10 0 -6 -11 -15 -25 -20 -14 -5 -25 -14 -25 -20 0
-6 -4 -8 -10 -5 -5 3 -10 2 -10 -2 0 -5 -16 -17 -35 -27 -19 -11 -35 -22 -35
-26 0 -4 -21 -22 -47 -40 -27 -19 -58 -44 -70 -57 -13 -13 -23 -22 -23 -19 0
6 -72 -58 -135 -119 -17 -17 -44 -41 -60 -53 -15 -12 -25 -22 -21 -22 3 0 -3
-9 -14 -20 -11 -11 -24 -20 -30 -20 -5 0 -10 -4 -10 -10 0 -5 -21 -32 -47 -59
-27 -27 -57 -62 -68 -76 -11 -15 -56 -66 -100 -114 -44 -47 -101 -108 -125
-135 -25 -27 -53 -58 -62 -68 -10 -10 -18 -20 -18 -23 0 -2 -10 -15 -22 -27
-35 -36 -92 -109 -100 -127 -4 -9 -7 -11 -7 -6 -1 6 -10 -3 -20 -20 -10 -16
-28 -40 -40 -52 -11 -12 -21 -25 -21 -28 0 -4 -6 -12 -12 -19 -7 -8 -20 -23
-28 -36 -8 -12 -37 -52 -64 -88 -26 -37 -64 -92 -84 -122 -20 -30 -41 -58 -47
-62 -6 -5 -6 -8 0 -8 6 0 6 -3 -1 -8 -6 -4 -41 -56 -78 -117 -38 -60 -74 -119
-81 -130 -7 -11 -12 -24 -13 -29 0 -5 -4 -12 -9 -15 -10 -6 -46 -69 -92 -156
-14 -27 -28 -52 -31 -55 -5 -5 -22 -37 -118 -225 -62 -122 -143 -294 -184
-393 -23 -53 -39 -77 -60 -88 -15 -8 -31 -15 -35 -15 -17 0 -58 -12 -63 -18
-3 -4 -34 -16 -70 -28 -104 -35 -154 -53 -175 -62 -36 -16 -242 -91 -248 -91
-3 0 -18 -5 -34 -12 -15 -6 -34 -12 -41 -14 -48 -10 -90 -72 -324 -488 -12
-22 -41 -75 -85 -156 -70 -126 -313 -621 -313 -636 0 -2 -14 -34 -31 -71 -53
-117 -79 -178 -85 -198 -1 -5 -10 -28 -20 -50 -10 -22 -17 -43 -16 -47 1 -5
-3 -8 -10 -8 -6 0 -9 -3 -6 -6 4 -3 -1 -22 -9 -42 -18 -44 -34 -85 -35 -92 -1
-3 -8 -21 -16 -39 -7 -19 -15 -42 -17 -50 -2 -9 -14 -43 -25 -76 -27 -73 -81
-252 -110 -360 -28 -104 -30 -115 -24 -115 6 0 123 79 134 90 3 3 52 36 110
74 58 38 110 76 117 83 6 8 13 13 15 12 1 -1 62 36 133 83 72 46 186 120 255
163 69 43 141 88 160 100 73 47 230 134 230 127 0 -4 4 -2 8 4 6 10 147 84
159 84 9 0 -22 -453 -32 -470 -5 -8 44 -55 66 -62 10 -3 14 -22 14 -66 0 -34
-3 -62 -6 -62 -13 0 -5 -37 13 -56 16 -18 17 -22 4 -27 -9 -3 -18 -2 -21 4 -4
5 -10 7 -15 4 -5 -3 -12 0 -16 6 -5 8 -3 9 6 4 9 -5 11 -4 6 3 -4 7 -2 12 4
12 6 0 8 5 5 11 -5 6 -13 3 -22 -10 -8 -12 -19 -19 -24 -16 -5 4 -9 1 -9 -5 0
-7 7 -9 16 -6 12 4 15 2 11 -9 -4 -8 -2 -17 3 -20 6 -4 10 -1 10 4 0 6 4 11 8
11 5 0 9 -6 9 -14 0 -16 -19 -15 -40 2 -12 10 -16 10 -20 -2 -4 -9 -1 -18 5
-22 7 -5 8 -2 4 7 -4 8 -1 6 7 -3 8 -10 18 -14 22 -10 5 4 5 1 1 -5 -6 -10
-14 -10 -37 2 -16 9 -27 20 -24 25 3 6 -1 7 -10 4 -14 -6 -14 -8 1 -19 12 -8
14 -14 6 -19 -7 -4 -12 -2 -12 3 0 6 -4 11 -9 11 -5 0 -8 -8 -6 -18 2 -9 4
-19 4 -21 1 -2 9 3 20 13 17 15 19 15 32 -1 13 -16 12 -17 -3 -4 -19 14 -25 2
-8 -15 7 -7 6 -11 -4 -11 -8 0 -13 3 -11 7 2 4 -12 7 -33 7 -20 0 -29 -2 -19
-4 9 -2 17 -9 17 -14 0 -6 4 -8 9 -4 5 3 13 1 16 -5 4 -6 3 -10 -2 -9 -4 1
-17 -2 -27 -6 -19 -8 -19 -9 -1 -15 17 -6 17 -7 -3 -12 -12 -4 -25 -1 -29 4
-3 7 -1 8 5 4 7 -4 10 1 7 13 -3 15 0 18 13 14 9 -3 14 -3 10 2 -11 12 -57 15
-64 4 -3 -5 -2 -9 3 -8 20 3 34 -2 28 -11 -3 -5 -13 -7 -23 -4 -13 5 -14 4 -3
-4 9 -7 10 -12 2 -16 -6 -4 -9 -11 -6 -16 3 -4 -2 -10 -10 -14 -9 -3 -12 -12
-9 -21 5 -12 10 -13 17 -6 13 13 37 14 37 2 0 -5 -8 -8 -17 -7 -10 0 -17 -5
-15 -11 3 -18 -15 -16 -22 2 -3 8 -12 12 -21 9 -14 -6 -20 7 -15 31 1 6 -2 7
-6 2 -11 -10 -13 -47 -2 -41 10 6 6 -26 -6 -44 -4 -7 -14 -11 -22 -8 -8 3 -11
0 -8 -9 3 -7 -2 -15 -13 -18 -10 -3 -7 -4 9 -4 15 1 24 5 21 11 -4 5 -1 6 7 1
9 -6 11 -4 5 5 -6 9 -4 11 5 5 8 -5 11 -4 7 2 -4 6 1 10 10 9 9 0 18 6 21 14
4 12 3 13 -10 3 -12 -10 -15 -10 -15 2 0 8 5 11 10 8 6 -3 7 -1 3 5 -3 6 -1
14 6 18 7 4 10 4 6 -1 -4 -4 -2 -15 4 -23 10 -11 6 -19 -20 -41 -20 -16 -33
-36 -34 -53 -2 -18 -6 -24 -12 -18 -15 15 -36 12 -30 -5 4 -8 10 -12 15 -9 5
3 9 0 9 -6 0 -6 5 -8 12 -4 7 4 8 3 4 -5 -4 -6 -12 -9 -17 -5 -5 3 -20 7 -34
10 -19 3 -23 0 -22 -16 1 -11 5 -20 10 -20 5 0 7 7 3 15 -5 13 -2 14 17 4 32
-17 35 -21 12 -17 -14 2 -20 -3 -20 -14 0 -10 -5 -17 -10 -17 -6 1 -9 5 -7 10
1 5 -4 9 -12 9 -8 0 -13 8 -11 18 1 9 0 11 -2 5 -3 -7 -9 -13 -14 -13 -5 0 4
-13 21 -30 21 -20 26 -30 15 -30 -8 0 -15 4 -15 10 0 15 -36 31 -38 17 0 -7
-2 -20 -4 -29 -2 -9 2 -16 7 -15 6 1 9 10 8 20 -2 9 2 17 9 17 6 0 9 -3 5 -6
-3 -4 1 -20 9 -36 9 -17 13 -32 11 -35 -3 -2 -8 5 -12 16 -3 12 -11 19 -16 15
-6 -3 -5 -12 3 -22 8 -10 1 -8 -19 6 -36 25 -57 30 -27 6 16 -13 16 -15 1 -10
-24 7 -21 -1 4 -15 15 -8 19 -8 15 0 -4 6 -5 11 -2 11 3 0 10 -9 16 -19 7 -14
7 -22 -2 -27 -7 -4 -8 -3 -4 4 6 10 -7 17 -17 10 -2 -2 -12 4 -22 12 -11 8
-16 10 -12 3 4 -7 0 -13 -10 -16 -17 -4 -17 -5 0 -6 10 0 16 -5 12 -11 -3 -5
-13 -7 -23 -4 -15 5 -15 4 1 -6 9 -6 15 -16 11 -22 -4 -7 -9 -6 -14 2 -5 8 -9
6 -14 -6 -4 -10 -4 -15 0 -11 4 4 14 1 22 -6 13 -10 14 -9 7 2 -6 10 -4 12 5
6 8 -5 11 -4 6 3 -3 6 -2 13 4 17 6 4 7 11 4 17 -5 7 -2 8 6 3 8 -5 11 -4 6 3
-3 6 -1 14 5 18 7 4 9 3 5 -4 -3 -6 2 -15 11 -21 11 -6 13 -11 5 -11 -7 0 -10
-5 -6 -12 4 -6 3 -8 -3 -5 -10 6 -43 -26 -43 -43 0 -6 -4 -10 -10 -10 -5 0 -6
8 -3 17 5 12 2 15 -9 11 -9 -4 -21 -2 -27 3 -8 6 -8 5 -1 -3 14 -17 12 -31 -2
-22 -7 4 -10 4 -6 0 4 -5 3 -18 -2 -30 -9 -24 4 -56 17 -43 4 5 1 12 -7 17 -8
6 -10 10 -5 11 40 5 68 6 57 2 -6 -3 -10 -9 -7 -14 4 -5 -2 -6 -12 -2 -16 6
-17 5 -3 -12 8 -10 9 -16 3 -11 -7 4 -22 2 -33 -4 -13 -7 -20 -7 -20 0 0 5 -8
10 -17 10 -17 -1 -17 -1 0 -11 24 -14 22 -33 -2 -19 -25 13 -31 13 -31 -1 0
-5 4 -8 8 -5 4 2 14 1 21 -3 11 -7 9 -15 -9 -38 l-21 -30 20 -36 c20 -35 20
-36 1 -25 -10 7 -17 15 -14 19 2 4 -3 12 -11 19 -10 9 -15 9 -15 1 0 -6 4 -11
9 -11 15 0 6 -29 -14 -44 -17 -12 -17 -16 -5 -31 10 -12 10 -19 3 -23 -15 -10
-20 -30 -8 -31 6 -1 10 2 10 7 1 4 6 16 12 27 6 11 9 28 8 38 -2 10 1 14 7 11
7 -5 8 -2 4 7 -4 8 -1 6 7 -3 8 -10 18 -14 22 -10 5 4 5 2 1 -5 -4 -7 -14 -9
-23 -6 -12 5 -14 3 -7 -8 15 -24 12 -60 -6 -69 -10 -5 -21 -6 -25 -2 -5 4 -5
-1 -2 -10 3 -9 0 -21 -7 -27 -9 -8 -13 -7 -13 4 0 8 5 11 10 8 6 -3 7 -1 3 5
-12 20 -23 13 -23 -14 0 -17 4 -23 13 -20 8 3 21 9 29 12 8 3 15 1 15 -6 0 -6
-5 -8 -10 -5 -14 9 -13 -8 2 -23 8 -8 9 -12 1 -12 -6 0 -13 5 -15 11 -2 6 -12
1 -23 -12 l-20 -22 25 7 c19 6 21 5 10 -3 -8 -6 -11 -11 -7 -11 11 0 -12 -40
-23 -40 -6 0 -10 5 -10 11 0 5 5 7 12 3 7 -4 8 -3 4 4 -4 7 -1 12 6 12 8 0 6
5 -5 11 -9 6 -15 14 -12 19 3 5 1 11 -4 15 -6 3 -8 13 -5 23 5 14 4 15 -5 2
-6 -9 -6 -19 -1 -24 4 -4 6 -15 3 -22 -3 -8 0 -14 7 -14 6 0 8 -5 5 -10 -4 -6
-10 -8 -15 -5 -4 3 -6 -5 -2 -17 3 -14 2 -19 -6 -14 -7 4 -12 2 -12 -4 0 -7 8
-9 22 -4 21 6 22 5 8 -11 -14 -17 -13 -18 2 -12 13 4 15 2 11 -10 -4 -10 -2
-14 4 -10 5 3 10 0 10 -8 0 -8 -4 -15 -8 -15 -10 0 -25 -40 -28 -79 -1 -7 -7
-11 -16 -7 -8 3 -15 1 -15 -4 0 -5 -7 -7 -15 -4 -17 7 -21 -11 -5 -21 6 -4 8
-11 4 -16 -3 -5 -15 1 -26 13 -19 22 -19 21 1 -8 19 -29 19 -33 5 -38 -9 -4
-14 -9 -11 -13 10 -9 38 18 30 30 -3 6 -1 7 5 3 6 -4 8 -14 5 -24 -6 -15 -5
-16 13 -2 17 14 18 13 7 -1 -7 -9 -9 -20 -5 -25 4 -4 -1 -2 -11 5 -10 8 -17 9
-17 3 0 -6 8 -16 17 -21 12 -7 13 -10 4 -11 -7 0 -11 -6 -7 -15 3 -8 2 -14 -2
-14 -20 3 -25 -2 -12 -12 13 -9 13 -10 -2 -6 -28 9 -29 -30 -1 -51 22 -16 23
-18 4 -18 -11 0 -17 4 -15 8 10 15 -14 8 -27 -9 -8 -9 -9 -14 -3 -10 7 4 17 0
24 -9 7 -8 20 -12 28 -9 12 4 13 3 2 -10 -11 -14 -14 -13 -27 4 -7 11 -20 18
-27 15 -8 -3 -16 -1 -19 3 -7 12 8 36 19 31 5 -1 9 9 9 24 1 15 9 35 18 46 20
22 22 36 4 26 -9 -6 -9 -4 1 8 9 11 10 18 2 23 -10 6 -14 -1 -11 -18 1 -5 -9
-6 -21 -2 -18 5 -20 4 -8 -4 8 -6 11 -11 5 -11 -5 0 -4 -5 2 -11 14 -14 5 -42
-10 -32 -5 3 -7 1 -3 -5 10 -17 -14 -61 -31 -55 -9 3 -5 -5 8 -19 13 -13 29
-22 35 -20 15 4 26 -25 13 -34 -6 -4 -5 -12 3 -22 7 -10 8 -14 4 -10 -5 4 -16
2 -24 -4 -18 -16 -42 -19 -42 -6 0 6 8 7 18 3 12 -4 14 -3 6 5 -16 16 -48 1
-33 -16 9 -11 5 -13 -20 -9 -18 2 -29 0 -25 -6 3 -5 9 -7 14 -4 15 9 38 -6 35
-23 -6 -28 -6 -28 -14 -8 -7 19 -8 19 -13 -2 -4 -12 -2 -20 2 -17 5 3 11 1 15
-5 3 -5 -2 -10 -12 -10 -15 0 -16 -2 -3 -10 13 -8 12 -10 -2 -10 -10 0 -18 -5
-18 -10 0 -7 6 -7 19 -1 10 6 21 8 23 5 3 -2 4 7 3 21 -2 14 1 23 5 20 5 -3 7
3 5 15 -2 11 1 22 6 25 5 4 7 10 5 14 -3 3 4 7 15 7 16 0 17 -3 7 -11 -11 -9
-15 -36 -10 -69 1 -5 10 -2 20 5 15 13 16 12 3 -4 -11 -13 -17 -15 -28 -6 -7
7 -17 8 -21 4 -4 -4 -1 -10 6 -12 6 -3 12 -9 12 -14 0 -6 -4 -7 -10 -4 -15 9
-12 -18 6 -45 l16 -25 -20 22 c-20 23 -40 20 -21 -4 8 -9 8 -17 0 -26 -6 -8
-8 -16 -5 -20 3 -3 -2 -16 -11 -30 -15 -24 -15 -26 7 -42 20 -14 20 -16 4 -13
-10 2 -21 -3 -24 -11 -3 -9 0 -11 8 -6 9 6 11 4 5 -5 -6 -10 -11 -9 -22 5 -15
22 -17 35 -4 35 4 0 8 12 7 27 0 18 4 27 13 25 7 -1 11 3 8 10 -2 7 0 20 4 30
6 11 4 18 -6 22 -8 3 -15 10 -15 16 0 6 4 9 9 5 5 -3 13 0 16 6 11 17 -1 21
-24 8 -15 -10 -17 -16 -9 -26 7 -9 7 -18 -3 -30 -10 -11 -10 -14 -2 -9 8 4 13
1 13 -9 0 -13 -4 -14 -23 -5 -18 9 -20 9 -7 -2 9 -7 15 -20 14 -28 -3 -36 -5
-41 -14 -35 -13 8 -13 2 4 -31 8 -15 12 -32 9 -37 -4 -6 1 -8 11 -4 14 6 15 4
4 -16 -7 -12 -12 -26 -13 -31 0 -5 -11 -15 -25 -23 -23 -14 -24 -14 -6 1 15
12 16 16 5 17 -8 0 -24 2 -36 3 -12 1 -20 -1 -17 -6 4 -5 13 -7 21 -4 11 4 13
2 10 -9 -4 -8 -2 -17 3 -20 5 -3 7 -12 4 -19 -3 -8 5 -21 17 -29 22 -16 22
-16 1 -14 -11 0 -18 5 -16 9 3 4 -2 8 -10 8 -9 0 -13 7 -11 20 2 11 0 20 -6
20 -7 0 -7 -29 1 -50 2 -3 2 -7 2 -10 0 -3 20 -6 44 -8 34 -2 44 1 38 10 -6
10 -4 11 7 1 19 -19 1019 -19 1038 -1 11 10 12 10 7 1 -5 -10 7 -12 48 -11 30
1 50 5 44 9 -6 4 -22 5 -35 3 -15 -3 -22 -1 -19 5 7 10 66 8 84 -3 6 -3 14 -2
17 4 4 6 3 10 -2 9 -20 -3 -30 2 -30 16 0 14 10 19 30 16 4 0 7 3 7 9 0 14
-12 12 -38 -6 -12 -8 -20 -19 -17 -24 3 -4 -5 -6 -17 -2 -20 5 -21 6 -3 12 19
7 19 7 0 19 -16 10 -16 11 -2 7 15 -5 22 5 18 27 -1 5 3 6 8 2 6 -3 8 -12 4
-20 -4 -11 -1 -13 11 -9 20 8 16 26 -9 41 -25 15 -11 17 17 2 17 -9 20 -9 15
4 -4 11 0 13 14 10 11 -3 19 0 19 6 0 7 4 10 10 6 5 -3 7 -13 4 -23 -5 -15 -4
-15 6 1 6 9 16 14 22 11 7 -4 8 -2 4 5 -4 6 -11 9 -16 6 -5 -3 -12 -1 -15 5
-5 8 -11 8 -20 0 -15 -12 -16 5 -2 27 5 7 10 23 12 34 3 12 7 24 11 28 3 3 4
-3 2 -13 -1 -10 3 -21 11 -24 8 -3 11 0 7 6 -3 6 0 17 8 25 18 17 11 28 -12
20 -14 -4 -14 -3 -3 5 15 11 51 -5 51 -21 0 -4 -4 -6 -9 -3 -5 3 -15 -2 -22
-12 -13 -15 -12 -16 4 -3 10 8 17 9 17 3 0 -14 -37 -35 -49 -28 -5 3 -11 0
-14 -8 -3 -8 1 -17 9 -20 8 -3 13 -2 10 3 -7 10 19 23 28 14 11 -11 6 -24 -6
-17 -7 4 -8 3 -4 -4 4 -6 13 -9 22 -5 11 4 12 9 3 19 -8 10 -7 18 4 34 7 11
17 17 21 13 4 -4 4 1 0 12 -7 17 -5 18 7 8 13 -10 16 -10 16 2 0 8 -4 12 -8 9
-4 -2 -10 0 -14 6 -3 5 -1 11 4 11 6 1 16 2 21 3 6 0 10 4 10 9 0 4 0 12 0 19
0 6 -7 3 -15 -8 -8 -10 -15 -15 -15 -10 0 6 -6 2 -12 -7 -12 -14 -15 -14 -32
-2 -11 8 -15 15 -10 15 6 0 16 -6 23 -12 10 -11 11 -8 6 13 -7 28 8 48 21 28
4 -8 3 -9 -4 -5 -7 4 -12 1 -12 -8 0 -9 6 -15 13 -14 20 5 27 21 14 37 -10 12
-9 13 2 7 9 -6 12 -5 9 5 -3 8 -12 13 -19 11 -8 -2 -10 0 -6 4 17 17 35 12 33
-11 -2 -14 5 -27 18 -35 19 -12 20 -12 7 3 -7 9 -11 26 -8 37 3 11 1 23 -4 26
-5 3 -7 10 -3 15 3 5 10 7 15 4 5 -4 9 -2 9 4 0 5 9 12 19 16 15 4 18 13 15
38 -3 25 -2 28 5 12 8 -18 9 -19 16 -2 4 9 12 17 18 17 5 0 3 -8 -6 -18 -10
-10 -14 -22 -10 -27 5 -4 2 -5 -6 0 -9 5 -12 4 -7 -3 3 -6 -3 -16 -15 -22 -11
-7 -18 -14 -15 -17 3 -3 12 0 20 6 8 7 20 10 25 6 7 -4 8 1 4 12 -6 16 -5 16
10 4 9 -7 14 -18 10 -24 -3 -5 -2 -7 4 -4 11 7 10 43 -2 54 -4 5 -5 2 -1 -4 4
-7 3 -13 -2 -13 -17 0 -22 13 -11 27 8 9 15 10 24 3 10 -8 15 -8 21 1 4 7 3
10 -2 7 -15 -9 -29 14 -30 50 -1 25 1 30 11 22 8 -7 15 -7 19 -1 3 5 0 11 -6
14 -7 2 -10 8 -5 12 9 11 17 3 22 -24 2 -14 0 -19 -7 -15 -7 4 -8 3 -4 -4 4
-7 2 -12 -4 -12 -7 0 -10 -5 -8 -11 4 -13 24 -11 20 2 -1 5 2 9 7 9 5 0 8 22
6 50 -2 27 1 52 6 55 5 4 6 -2 2 -12 -6 -16 -5 -16 10 -5 20 17 38 7 31 -16
-5 -14 -3 -14 6 2 9 13 9 20 2 25 -6 4 -10 16 -9 28 0 12 5 19 9 17 4 -3 8 -1
8 5 0 5 -8 12 -17 14 -15 4 -15 5 -2 6 9 0 22 -6 29 -14 7 -9 8 -15 2 -15 -5
0 -13 -8 -16 -17 -6 -15 -5 -16 11 -1 10 8 27 21 38 27 19 11 19 12 -2 6 -13
-4 -23 -3 -24 2 0 4 -2 17 -4 28 -11 59 -11 74 -3 69 5 -3 8 -11 7 -17 -3 -25
1 -38 11 -32 6 4 8 10 5 15 -3 4 6 22 20 38 30 35 30 39 8 44 -15 3 -14 5 5
10 12 3 20 3 17 -2 -3 -4 3 -11 12 -14 17 -7 36 12 26 27 -3 5 5 6 18 2 23 -7
23 -7 4 8 -14 11 -25 13 -40 6 -18 -9 -19 -9 -3 4 10 8 15 17 12 20 -3 3 1 5
9 3 8 -1 22 -9 31 -19 10 -9 20 -17 23 -17 4 0 3 3 0 7 -4 3 1 12 11 20 15 13
15 13 -5 3 -18 -8 -24 -7 -33 10 -6 11 -7 26 -3 33 4 6 8 19 10 27 1 8 13 24
27 35 32 26 34 40 4 25 -21 -10 -21 -9 2 9 14 11 21 21 16 21 -5 0 1 11 14 26
21 21 22 27 10 35 -13 9 -12 10 2 5 14 -4 16 0 13 25 -2 16 1 27 6 24 5 -4 9
-1 9 4 0 6 4 11 8 11 5 0 9 -7 9 -14 0 -8 -5 -14 -10 -13 -5 1 -12 -5 -14 -13
-4 -12 -3 -12 5 -1 7 9 12 10 16 2 4 -6 3 -11 -2 -11 -5 0 -14 -11 -20 -25
-10 -21 -9 -23 5 -18 12 5 14 3 8 -8 -4 -8 -5 -11 0 -7 4 4 13 3 20 -2 8 -7
11 -4 10 10 -1 11 -5 23 -10 27 -4 5 -5 2 -1 -4 8 -15 -10 -18 -19 -3 -8 13
42 43 60 36 10 -3 13 -2 9 5 -3 6 -18 8 -33 5 l-26 -6 25 22 c16 14 19 19 8
15 -12 -4 -18 -1 -18 9 0 9 5 12 12 8 9 -5 9 -2 -1 9 -8 10 -9 17 -3 17 6 0
15 -7 20 -16 6 -10 12 -13 16 -6 3 5 -1 12 -9 16 -8 3 -15 11 -15 17 0 8 4 8
13 2 15 -12 47 -24 47 -17 0 2 -12 9 -26 15 -26 9 -26 10 -9 29 10 11 14 20
10 20 -4 0 0 9 10 20 10 11 22 17 26 14 5 -3 9 -3 9 0 0 12 -40 25 -56 19 -16
-6 -16 -7 2 -20 10 -7 16 -13 13 -14 -2 0 -14 -2 -26 -5 -13 -2 -23 1 -23 7 0
5 5 7 10 4 14 -9 12 9 -2 24 -7 7 -8 12 -3 11 21 -4 36 0 30 10 -3 5 -13 6
-22 3 -11 -4 -14 -3 -9 6 5 7 14 10 21 7 7 -2 19 1 26 7 9 9 9 6 -1 -8 -8 -11
-10 -17 -6 -13 5 4 16 2 24 -5 13 -9 14 -9 8 0 -4 8 -2 13 6 13 7 0 2 7 -10
16 -12 8 -26 13 -31 10 -4 -3 -16 3 -26 14 -10 12 -13 20 -7 20 7 0 12 -4 12
-9 0 -5 8 -8 18 -6 9 1 29 -6 44 -17 17 -12 29 -15 33 -8 4 6 3 10 -2 9 -20
-4 -27 2 -13 12 13 10 13 10 0 6 -8 -2 -28 2 -45 9 -18 8 -23 13 -12 14 9 0
17 5 17 11 0 5 -6 7 -12 3 -10 -6 -10 -5 -1 8 7 8 9 19 5 23 -4 5 -1 5 6 1 6
-4 12 -2 12 4 0 6 5 8 12 4 6 -4 8 -3 4 4 -5 9 22 25 46 27 3 0 9 3 13 7 4 3
-1 5 -12 3 -10 -1 -27 5 -37 14 -13 11 -17 12 -11 2 5 -9 4 -12 -3 -7 -7 4
-10 -1 -7 -13 2 -11 -3 -22 -11 -25 -12 -4 -12 -2 -4 14 6 11 8 20 4 20 -3 0
-1 7 6 15 10 12 10 18 1 29 -8 10 -9 16 -1 21 9 6 14 0 12 -16 -1 -4 9 -15 21
-25 12 -10 17 -12 10 -5 -9 10 -9 18 0 32 9 15 9 24 0 39 -8 12 -9 21 -3 25
14 9 -19 56 -34 48 -6 -3 -8 -3 -4 2 4 4 2 15 -5 23 -10 13 -9 14 2 7 11 -6
13 -4 9 7 -4 10 0 14 15 12 12 -1 26 -3 30 -3 5 -1 5 -7 1 -13 -5 -10 -4 -10
6 -1 11 10 18 9 34 -5 16 -13 18 -13 8 -1 -10 13 -4 24 39 68 39 40 56 51 73
47 93 -22 80 -28 206 105 164 175 206 214 214 200 7 -11 74 -267 81 -310 3
-19 8 -37 10 -41 3 -4 7 -22 9 -41 3 -19 12 -68 21 -109 20 -90 44 -212 50
-260 3 -19 9 -55 15 -80 5 -25 12 -63 15 -85 3 -22 14 -92 25 -155 11 -63 22
-135 25 -160 3 -25 8 -58 11 -75 10 -59 12 -70 13 -73 2 -8 31 28 31 37 0 6 3
11 8 11 4 0 23 25 42 55 19 30 38 55 43 55 4 0 7 6 7 14 0 8 3 16 8 18 10 4
127 191 201 323 34 61 69 121 76 135 8 14 34 63 57 110 24 47 46 86 51 88 4 2
7 9 7 15 0 15 42 100 53 108 5 3 8 9 7 13 -1 4 7 26 18 49 51 107 82 179 82
188 0 5 4 9 8 9 5 0 9 6 9 13 1 6 35 93 75 192 41 99 105 266 142 370 38 105
71 197 74 205 3 8 6 20 8 25 1 6 10 33 19 60 10 28 18 55 19 60 1 6 10 36 19
67 14 45 15 62 6 85 -17 43 -25 63 -47 123 -44 119 -107 291 -148 408 l-43
123 39 77 c46 91 160 330 160 337 0 6 37 91 51 117 4 9 33 79 62 155 30 76 58
147 62 158 5 11 9 22 10 25 1 3 4 12 7 20 11 27 85 244 106 310 17 54 26 85
47 160 1 3 7 25 14 50 7 25 15 52 17 60 2 8 17 69 34 135 17 66 32 131 35 144
4 22 16 83 31 151 2 14 7 43 10 64 3 22 7 43 9 46 2 3 7 32 10 65 7 59 12 90
15 90 1 0 3 21 5 47 2 26 6 69 9 95 4 27 8 68 11 92 3 24 7 47 9 50 2 3 7 31
11 61 4 30 9 58 12 63 4 7 13 92 16 164 1 24 4 43 7 43 6 0 8 55 10 240 1 119
-5 295 -10 295 -1 0 -3 32 -5 70 -3 39 -7 86 -11 105 -7 43 -14 92 -20 145 -9
78 -17 136 -30 205 -2 14 -7 41 -10 60 -3 19 -8 44 -11 55 -3 11 -7 34 -9 50
-1 17 -5 44 -9 60 -3 17 -8 39 -10 50 -2 11 -6 31 -10 45 -7 35 -16 90 -19
124 -1 15 -10 33 -20 38 -13 8 -15 13 -5 24 6 8 9 14 6 14 -4 0 7 30 24 67 16
36 31 73 33 82 1 9 10 34 20 56 10 22 26 63 36 90 10 28 27 71 39 98 11 26 21
51 22 55 1 4 5 16 9 27 5 11 25 63 45 115 20 51 41 100 47 107 6 7 8 13 5 13
-3 0 7 32 23 70 31 74 32 85 6 45z m-3969 -6815 c10 -13 8 -16 -6 -16 -11 0
-17 6 -16 16 2 8 4 17 4 19 1 2 2 2 4 0 1 -2 8 -11 14 -19z m-74 -145 c-3 -9
-8 -14 -10 -11 -3 3 -2 9 2 15 9 16 15 13 8 -4z m1343 -240 c-1 -8 -5 -17 -8
-21 -5 -4 -4 16 1 34 3 9 9 -1 7 -13z m48 -46 c-3 -5 -10 -7 -15 -3 -5 3 -16
1 -24 -6 -9 -8 -15 -8 -20 0 -4 6 -3 9 2 8 4 -2 9 1 10 6 1 5 7 12 14 17 15 9
42 -9 33 -22z m4 -43 c2 -10 -1 -23 -6 -28 -7 -7 -10 -2 -8 16 3 22 0 26 -17
20 -13 -4 -17 -3 -12 5 10 17 39 9 43 -13z m-1618 -37 c13 -9 13 -10 -1 -6 -9
3 -22 0 -28 -6 -7 -7 -11 -7 -11 -1 0 24 17 29 40 13z m1561 -22 c-10 -9 -11
-8 -5 6 3 10 9 15 12 12 3 -3 0 -11 -7 -18z m-8 -32 c-3 -9 -8 -14 -10 -11 -3
3 -2 9 2 15 9 16 15 13 8 -4z m57 5 c0 -5 -5 -10 -11 -10 -5 0 -7 5 -4 10 3 6
8 10 11 10 2 0 4 -4 4 -10z m-1638 -39 c8 12 9 12 6 0 -2 -8 -11 -15 -20 -17
-12 -1 -15 3 -10 14 4 12 7 13 10 3 4 -11 6 -11 14 0z m1574 -6 c-1 -8 -5 -17
-8 -21 -5 -4 -4 16 1 34 3 9 9 -1 7 -13z m-1571 -36 c3 -5 0 -6 -8 -3 -8 3
-17 -3 -21 -13 -6 -13 -9 -14 -15 -4 -7 10 -9 10 -14 -2 -4 -11 1 -14 18 -12
14 1 22 -1 20 -5 -6 -9 -55 -10 -55 -1 0 31 61 64 75 40z m1595 -119 c0 -5 -2
-10 -4 -10 -3 0 -8 5 -11 10 -3 6 -1 10 4 10 6 0 11 -4 11 -10z m-1693 -15 c0
-8 -4 -12 -9 -9 -4 3 -8 9 -8 15 0 5 4 9 8 9 5 0 9 -7 9 -15z m1649 -24 c25
20 23 -9 -2 -32 -14 -13 -25 -19 -24 -14 1 6 1 12 0 15 -1 3 -3 13 -5 24 -3
14 -1 16 7 8 8 -8 15 -8 24 -1z m-36 -46 c0 -8 -4 -15 -8 -15 -5 0 -9 7 -9 15
0 8 4 15 9 15 4 0 8 -7 8 -15z m-1585 -25 c-3 -5 -12 -10 -18 -10 -7 0 -6 4 3
10 19 12 23 12 15 0z m1525 -113 c0 -2 -10 -12 -22 -23 l-23 -19 19 23 c18 21
26 27 26 19z m-1560 -57 c0 -5 -5 -10 -11 -10 -5 0 -7 5 -4 10 3 6 8 10 11 10
2 0 4 -4 4 -10z m1497 -35 c0 -8 -4 -15 -9 -15 -10 0 -11 14 -1 23 9 10 10 9
10 -8z m-1513 -43 c3 -5 -1 -9 -9 -9 -8 0 -12 4 -9 9 3 4 7 8 9 8 2 0 6 -4 9
-8z m1487 -25 c-10 -9 -11 -8 -5 6 3 10 9 15 12 12 3 -3 0 -11 -7 -18z m-1531
-59 c0 -4 -5 -8 -11 -8 -6 0 -9 -7 -6 -14 4 -10 1 -13 -9 -9 -8 3 -12 8 -10
11 3 3 2 10 -4 17 -6 8 -2 11 15 11 14 0 25 -4 25 -8z m13 -43 c-7 -21 -12
-19 -10 4 0 11 5 18 9 15 4 -3 5 -11 1 -19z m1507 11 c0 -3 -4 -8 -10 -11 -5
-3 -10 -1 -10 4 0 6 5 11 10 11 6 0 10 -2 10 -4z m-1590 -96 c0 -5 -2 -10 -4
-10 -3 0 -8 5 -11 10 -3 6 -1 10 4 10 6 0 11 -4 11 -10z m70 -4 c0 -3 -4 -8
-10 -11 -5 -3 -10 -1 -10 4 0 6 5 11 10 11 6 0 10 -2 10 -4z m1400 -26 c0 -5
-5 -10 -11 -10 -5 0 -7 5 -4 10 3 6 8 10 11 10 2 0 4 -4 4 -10z m-1440 -20 c0
-5 -4 -10 -10 -10 -5 0 -10 5 -10 10 0 6 5 10 10 10 6 0 10 -4 10 -10z m1410
-35 c0 -7 -30 -13 -34 -7 -3 4 4 9 15 9 10 1 19 0 19 -2z m-75 -45 c3 -5 1
-10 -4 -10 -6 0 -11 5 -11 10 0 6 2 10 4 10 3 0 8 -4 11 -10z m-44 -77 c-12
-20 -14 -14 -5 12 4 9 9 14 11 11 3 -2 0 -13 -6 -23z m24 -23 c3 -5 1 -10 -4
-10 -6 0 -11 5 -11 10 0 6 2 10 4 10 3 0 8 -4 11 -10z m-1349 -22 c4 -7 3 -8
-4 -4 -7 4 -12 0 -12 -10 0 -10 -3 -15 -6 -11 -7 6 2 37 10 37 3 0 8 -5 12
-12z m1268 -24 c3 -8 2 -12 -4 -9 -6 3 -10 10 -10 16 0 14 7 11 14 -7z m6 -28
c0 -3 -4 -8 -10 -11 -5 -3 -10 -1 -10 4 0 6 5 11 10 11 6 0 10 -2 10 -4z
m-1309 -59 c-10 -9 -11 -8 -5 6 3 10 9 15 12 12 3 -3 0 -11 -7 -18z m-31 -127
c0 -5 -2 -10 -4 -10 -3 0 -8 5 -11 10 -3 6 -1 10 4 10 6 0 11 -4 11 -10z m-7
-65 c-3 -9 -8 -14 -10 -11 -3 3 -2 9 2 15 9 16 15 13 8 -4z m1157 -19 c0 -2
-7 -7 -16 -10 -8 -3 -12 -2 -9 4 6 10 25 14 25 6z m-1209 -85 c-7 -5 -12 -11
-12 -15 1 -3 -2 -7 -6 -8 -3 -2 -7 5 -9 15 -1 9 2 15 6 12 5 -3 12 0 15 6 4 5
10 8 13 4 4 -3 1 -10 -7 -14z m1119 -15 c0 -2 -8 -10 -17 -17 -16 -13 -17 -12
-4 4 13 16 21 21 21 13z m-1100 -16 c0 -5 -5 -10 -11 -10 -5 0 -7 5 -4 10 3 6
8 10 11 10 2 0 4 -4 4 -10z"/>
<path d="M4245 1250 c-4 -6 -11 -7 -17 -4 -7 4 -8 2 -4 -5 6 -9 11 -9 22 0 14
11 18 19 10 19 -3 0 -8 -5 -11 -10z"/>
<path d="M3116 2302 c-3 -5 1 -9 9 -9 8 0 12 4 9 9 -3 4 -7 8 -9 8 -2 0 -6 -4
-9 -8z"/>
<path d="M3076 2258 c3 -5 10 -6 15 -3 13 9 11 12 -6 12 -8 0 -12 -4 -9 -9z"/>
<path d="M3170 2261 c0 -5 5 -13 10 -16 6 -3 10 -2 10 4 0 5 -4 13 -10 16 -5
3 -10 2 -10 -4z"/>
<path d="M3078 2233 c7 -3 16 -2 19 1 4 3 -2 6 -13 5 -11 0 -14 -3 -6 -6z"/>
<path d="M2935 2071 c-6 -11 13 -26 22 -17 4 3 1 6 -6 6 -7 0 -9 5 -6 10 3 6
4 10 1 10 -3 0 -7 -4 -11 -9z"/>
<path d="M2846 2018 c3 -5 10 -6 15 -3 13 9 11 12 -6 12 -8 0 -12 -4 -9 -9z"/>
<path d="M2890 1980 c0 -5 5 -10 10 -10 6 0 10 5 10 10 0 6 -4 10 -10 10 -5 0
-10 -4 -10 -10z"/>
<path d="M2845 1899 c-4 -6 -4 -13 -1 -16 3 -4 6 -1 6 6 0 7 5 9 10 6 6 -3 10
-1 10 4 0 14 -17 14 -25 0z"/>
<path d="M2880 1901 c0 -6 5 -13 10 -16 6 -3 10 1 10 9 0 9 -4 16 -10 16 -5 0
-10 -4 -10 -9z"/>
<path d="M2830 1866 c0 -2 7 -7 16 -10 8 -3 12 -2 9 4 -6 10 -25 14 -25 6z"/>
<path d="M2760 1771 c0 -8 -7 -11 -17 -6 -15 5 -16 4 -5 -6 9 -10 15 -10 24
-1 6 6 9 15 5 19 -4 3 -7 1 -7 -6z"/>
<path d="M4321 1706 c-8 -10 -9 -16 -1 -21 5 -3 10 -3 10 0 0 3 6 0 14 -7 8
-7 12 -16 10 -20 -2 -4 0 -9 5 -12 15 -10 6 22 -12 42 -9 10 -14 22 -10 25 3
4 4 7 1 7 -3 0 -11 -6 -17 -14z"/>
<path d="M2675 1629 c-4 -6 -5 -12 -2 -15 2 -3 7 2 10 11 7 17 1 20 -8 4z"/>
<path d="M2749 1623 c-13 -16 -12 -17 4 -4 16 13 21 21 13 21 -2 0 -10 -8 -17
-17z"/>
<path d="M4376 1587 c3 -10 9 -15 12 -12 3 3 0 11 -7 18 -10 9 -11 8 -5 -6z"/>
<path d="M4374 1546 c1 -8 5 -18 8 -22 4 -3 5 1 4 10 -1 8 -5 18 -8 22 -4 3
-5 -1 -4 -10z"/>
<path d="M4335 1471 c-3 -5 -2 -12 3 -15 5 -3 9 1 9 9 0 17 -3 19 -12 6z"/>
<path d="M4299 1446 c-8 -8 -2 -43 7 -43 7 0 10 7 6 16 -5 14 -3 14 14 -1 19
-16 20 -16 20 1 0 12 -5 17 -15 13 -8 -3 -12 -1 -8 5 4 7 -17 15 -24 9z"/>
<path d="M2596 1403 c-6 -14 -5 -15 5 -6 7 7 10 15 7 18 -3 3 -9 -2 -12 -12z"/>
<path d="M2526 1322 c-3 -5 1 -9 9 -9 8 0 12 4 9 9 -3 4 -7 8 -9 8 -2 0 -6 -4
-9 -8z"/>
<path d="M2553 1259 c-2 -23 3 -25 10 -4 4 8 3 16 -1 19 -4 3 -9 -4 -9 -15z"/>
<path d="M4290 1259 c0 -5 5 -7 10 -4 6 3 10 8 10 11 0 2 -4 4 -10 4 -5 0 -10
-5 -10 -11z"/>
<path d="M2599 1248 c-7 -24 -5 -36 5 -32 14 5 17 34 4 34 -4 0 -8 -1 -9 -2z"/>
<path d="M2516 1213 c-6 -14 -5 -15 5 -6 7 7 10 15 7 18 -3 3 -9 -2 -12 -12z"/>
<path d="M4269 1163 c-13 -16 -12 -17 4 -4 9 7 17 15 17 17 0 8 -8 3 -21 -13z"/>
<path d="M2560 1140 c-8 -5 -12 -12 -9 -15 4 -3 12 1 19 10 14 17 11 19 -10 5z"/>
<path d="M2497 1119 c7 -7 15 -10 18 -7 3 3 -2 9 -12 12 -14 6 -15 5 -6 -5z"/>
<path d="M4235 1101 c-3 -5 -2 -12 3 -15 5 -3 9 1 9 9 0 17 -3 19 -12 6z"/>
<path d="M2490 1059 c0 -5 5 -7 10 -4 6 3 10 8 10 11 0 2 -4 4 -10 4 -5 0 -10
-5 -10 -11z"/>
<path d="M4153 1048 c-15 -21 -9 -43 11 -40 12 2 16 -1 10 -9 -4 -8 -3 -10 4
-5 6 4 8 14 5 24 -6 14 -4 15 9 4 13 -11 18 -11 24 0 4 7 3 10 -1 5 -5 -4 -18
2 -30 13 -17 16 -24 18 -32 8z m21 -7 c3 -5 -1 -14 -8 -20 -12 -10 -14 -9 -11
6 2 10 4 19 4 21 2 5 10 2 15 -7z"/>
<path d="M2480 1020 c-9 -6 -10 -10 -3 -10 6 0 15 5 18 10 8 12 4 12 -15 0z"/>
<path d="M2505 1009 c-4 -5 -1 -18 7 -27 15 -18 13 -56 -2 -47 -5 3 -7 12 -4
19 3 8 1 17 -5 21 -12 7 -10 -22 2 -43 9 -13 -31 -34 -48 -24 -5 3 -7 1 -2 -3
11 -13 47 -13 47 -1 0 6 4 5 9 -3 6 -9 11 -10 15 -2 4 6 3 11 -3 11 -6 0 -1
16 10 35 22 36 18 60 -8 51 -11 -4 -13 -2 -9 9 6 17 0 20 -9 4z"/>
<path d="M4150 980 c0 -6 -4 -8 -10 -5 -9 6 -45 -28 -45 -43 0 -4 -4 -13 -9
-20 -11 -19 5 -34 24 -22 10 7 11 10 3 10 -7 0 -13 4 -13 9 0 5 9 7 20 4 11
-3 20 0 20 6 0 5 -6 8 -14 5 -11 -4 -13 0 -9 15 3 11 9 18 14 15 5 -3 16 1 24
10 9 9 11 17 5 21 -5 3 -10 1 -10 -5z"/>
<path d="M2455 940 c-3 -5 -1 -10 4 -10 6 0 11 5 11 10 0 6 -2 10 -4 10 -3 0
-8 -4 -11 -10z"/>
<path d="M2435 820 c-3 -5 -1 -10 4 -10 6 0 11 5 11 10 0 6 -2 10 -4 10 -3 0
-8 -4 -11 -10z"/>
<path d="M4066 803 c-6 -14 -5 -15 5 -6 7 7 10 15 7 18 -3 3 -9 -2 -12 -12z"/>
<path d="M4090 799 c0 -5 5 -7 10 -4 6 3 10 8 10 11 0 2 -4 4 -10 4 -5 0 -10
-5 -10 -11z"/>
<path d="M4004 776 c-31 -33 -35 -43 -18 -50 8 -3 12 -2 9 3 -3 5 4 12 15 16
16 5 19 12 14 28 -6 22 -6 22 9 2 9 -11 19 -17 23 -12 4 4 2 7 -5 7 -7 0 -10
4 -7 9 12 20 -21 17 -40 -3z m11 -16 c-3 -5 -12 -10 -18 -10 -7 0 -6 4 3 10
19 12 23 12 15 0z"/>
<path d="M4035 740 c-3 -5 -1 -10 4 -10 6 0 11 5 11 10 0 6 -2 10 -4 10 -3 0
-8 -4 -11 -10z"/>
<path d="M3965 710 c-3 -5 -3 -10 2 -10 4 0 1 -5 -7 -11 -13 -9 -13 -10 0 -6
8 2 22 1 31 -4 10 -5 16 -3 16 6 0 7 -7 11 -15 7 -10 -3 -13 -1 -8 6 3 6 2 13
-3 16 -5 4 -12 2 -16 -4z"/>
<path d="M4033 705 c0 -8 4 -12 9 -9 5 3 6 10 3 15 -9 13 -12 11 -12 -6z"/>
<path d="M3950 625 c-7 -9 -11 -17 -9 -20 3 -2 10 5 17 15 14 24 10 26 -8 5z"/>
<path d="M3975 600 c3 -5 8 -10 11 -10 2 0 4 5 4 10 0 6 -5 10 -11 10 -5 0 -7
-4 -4 -10z"/>
<path d="M2398 592 c11 -7 11 -10 -2 -15 -9 -4 -16 -12 -15 -19 0 -10 2 -10 6
0 2 6 11 12 20 12 18 0 12 22 -8 28 -11 3 -11 2 -1 -6z"/>
<path d="M3880 585 c-10 -12 -10 -15 1 -15 10 0 11 -2 2 -8 -8 -5 -9 -13 -3
-22 8 -13 10 -12 10 3 0 12 4 16 13 11 8 -6 8 -3 -1 9 -8 9 -11 21 -7 27 9 15
-1 12 -15 -5z"/>
<path d="M2426 567 c-8 -30 -7 -42 2 -33 4 4 7 11 7 14 0 4 4 12 8 19 4 6 3
14 -2 17 -5 3 -11 -4 -15 -17z"/>
<path d="M3936 575 c-9 -26 -7 -32 5 -12 6 10 9 21 6 23 -2 3 -7 -2 -11 -11z"/>
<path d="M2359 568 c-5 -18 -6 -38 -1 -34 7 8 12 36 6 36 -2 0 -4 -1 -5 -2z"/>
<path d="M2315 540 c-3 -5 -1 -10 4 -10 6 0 11 5 11 10 0 6 -2 10 -4 10 -3 0
-8 -4 -11 -10z"/>
<path d="M2319 408 c-5 -18 -6 -38 -1 -34 7 8 12 36 6 36 -2 0 -4 -1 -5 -2z"/>
<path d="M3717 377 c4 -7 6 -19 5 -29 -2 -9 2 -19 7 -23 7 -3 8 0 5 9 -9 24 5
39 24 24 10 -8 13 -9 9 -1 -4 7 0 16 10 22 10 6 13 11 6 11 -6 0 -15 -5 -18
-10 -4 -6 -12 -7 -18 -3 -20 12 -38 12 -30 0z"/>
<path d="M3750 320 c0 -5 5 -10 11 -10 5 0 7 5 4 10 -3 6 -8 10 -11 10 -2 0
-4 -4 -4 -10z"/>
<path d="M2273 294 c1 -21 19 -26 34 -9 4 4 3 5 -4 1 -6 -3 -16 2 -22 11 -9
16 -10 16 -8 -3z"/>
<path d="M2310 260 c0 -5 5 -10 11 -10 5 0 7 5 4 10 -3 6 -8 10 -11 10 -2 0
-4 -4 -4 -10z"/>
<path d="M2305 190 c10 -11 13 -20 7 -20 -6 0 -13 4 -17 9 -3 6 -14 9 -25 8
-10 -1 -17 -5 -14 -9 3 -4 11 -5 19 -2 8 4 18 -1 21 -10 3 -9 11 -13 16 -10 6
4 8 -1 4 -14 -4 -12 -2 -23 5 -28 7 -4 9 -3 5 4 -3 6 -2 14 4 17 7 4 8 11 1
18 -5 7 -9 14 -10 17 0 16 -15 40 -24 40 -5 0 -2 -9 8 -20z"/>
<path d="M3656 201 c-3 -5 1 -14 8 -20 10 -9 16 -9 21 -1 4 6 1 9 -7 8 -7 -2
-12 3 -10 10 2 14 -4 16 -12 3z"/>
<path d="M2256 147 c3 -9 14 -15 24 -14 11 1 16 6 12 16 -4 11 -7 11 -10 3 -3
-10 -7 -10 -18 -1 -12 10 -13 9 -8 -4z"/>
<path d="M3542 107 c-8 -10 -6 -13 9 -14 10 -1 19 5 19 13 0 17 -14 18 -28 1z"/>
<path d="M2213 75 c0 -8 4 -12 9 -9 5 3 6 10 3 15 -9 13 -12 11 -12 -6z"/>
<path d="M3566 63 c-6 -14 -5 -15 5 -6 7 7 10 15 7 18 -3 3 -9 -2 -12 -12z"/>
<path d="M3590 61 c0 -6 4 -13 10 -16 6 -3 7 1 4 9 -7 18 -14 21 -14 7z"/>
<path d="M2193 15 c0 -8 4 -12 9 -9 5 3 6 10 3 15 -9 13 -12 11 -12 -6z"/>
<path d="M2224 19 c-5 -8 -3 -9 6 -4 7 4 16 2 22 -6 8 -12 9 -12 6 0 -6 20
-24 25 -34 10z"/>
</g>
</svg>
